# xmcd
#
# Track frame offsets: 
#        150
#        16855
#        32073
#        48602
#        65274
#        82253
#        100919
#
# Disc length: 1572 seconds
#
# Revision: 0
# Processed by: cddbd v1.5.2PL0 Copyright (c) Steve Scherf et al.
# Submitted via: ExactAudioCopy v0.99pb5
#
DISCID=55062207
DTITLE=Natasha Bedingfield - Pocketful Of Sunshine(China Version)
DYEAR=2008
DGENRE=R&B
TTITLE0=Put Your Arms Around Me
TTITLE1=Pocketful Of Sunshine
TTITLE2=Happy
TTITLE3=Love Like This
TTITLE4=Piece of Your Heart
TTITLE5=Angel
TTITLE6=Freckles
EXTD=
EXTT0=
EXTT1=
EXTT2=
EXTT3=
EXTT4=
EXTT5=
EXTT6=
PLAYORDER=
